DataType=double
version=3
OpenSimVersion=4.4-2022-07-23-0e9fedc
endheader
time	Glut_Max_l	Glut_Med_l	Rect_Fem_l	Vast_Lat_l	Bice_Fem_l	Tibi_Ant_l	Gast_Med_l	Sol_l	Gast_Lat_l	Pero_Lon_l	Glut_Max_r	Glut_Med_r	Rect_Fem_r	Vast_Lat_r	Bice_Fem_r	Tibi_Ant_r	Gast_Med_r	Sol_r	Gast_Lat_r	Pero_Lon_r
6.21	0.07702644880172083	0.2217177422418907	0.06062635097328948	0.05689355805842852	0.03724257867455312	0.2685155580411042	0.2721285230535658	0.04842898858174767	0.05112534496761836	0.2454478361042731	0.2245000125528482	0.4942546245262025	0.06596852991817651	0.3814566102947554	0.1329111781547226	0.1261616203691936	0.1194752216692058	0.5381329118503055	0.1395162583091645	0.3076460101024494
6.211	0.0773345540715682	0.2205982346602613	0.0591712682836688	0.05666585274243842	0.03741239320067181	0.2651117706890632	0.2716270800447104	0.04851855807842209	0.05094908891929859	0.2421382393351109	0.2242140847074316	0.4932813960200885	0.06618132366139083	0.3828932821611984	0.1316388183931537	0.1245449281480468	0.1193860219389445	0.5397119941762109	0.1386951836659276	0.3098165064360031
6.212000000000001	0.07763610032403732	0.2194874100708721	0.05774417402143475	0.0564432239462977	0.03759977682069704	0.2616156199564164	0.2711319910075305	0.0486056325120093	0.05078347387033243	0.2387818471114257	0.2239667213928624	0.4922893444895993	0.06639214228925631	0.384370987890647	0.1303314671405477	0.1228893253735412	0.119279640235443	0.5411588536188822	0.1378766301171223	0.3119581592786753
6.213	0.07793067745990466	0.2183847613072586	0.05634549388478486	0.05622567542033817	0.03780341170341187	0.2580307944035996	0.2706427621249449	0.04869005804006539	0.05062825786961632	0.2353821026571787	0.2237568783604414	0.4912790635257323	0.0666006527355102	0.3858873672941407	0.128990489995704	0.1211966136948016	0.1191566199776305	0.5424749552980879	0.1370609347575292	0.3140673244556653
6.214	0.07821788734040856	0.2172897880805384	0.05497562247417639	0.0560132026595671	0.03802200368191338	0.2543610446522397	0.2701589283895717	0.04877168906907865	0.05048319717238495	0.2319424635265644	0.2235834660053665	0.4902512290660417	0.06680653244293232	0.3874400137576485	0.1276172872045313	0.1194686431201524	0.1190175289760267	0.5436619533783854	0.1362484246051822	0.3161403920931777
6.215	0.07849734454684006	0.2162019986943049	0.05363492338390449	0.05580579307911791	0.03825428365725241	0.2506101774551255	0.2696800537520258	0.04885038820511126	0.0503480464760081	0.2284663968420576	0.2234453515317295	0.4892065963283465	0.06700946971205646	0.389026476997173	0.1262132907717011	0.1177073085619373	0.118862958233746	0.5447216864485036	0.1354394165214289	0.3181737926284054
6.216	0.07876867709767019	0.2151209116618892	0.05232372933553433	0.05560342620413537	0.0384990089456368	0.2467820497915282	0.2692057312244808	0.04892602619212067	0.05022255915328681	0.2249573745973565	0.2233413612104727	0.4881459965582372	0.06720916403163564	0.3906442658666112	0.1247799615589624	0.1159145463582099	0.1186935206966621	0.5456561724772053	0.1346342171631812	0.32016400281943
6.217000000000001	0.07903152712063873	0.2140460572208673	0.05104234235171703	0.05540607387404356	0.03875496456778824	0.2428805629979058	0.2687355829374637	0.04899848183872325	0.05010648748336818	0.2214188690322567	0.2232702827236683	0.4870703336037496	0.06740532638989159	0.3922908512157365	0.1233187863779228	0.1140923307778627	0.1185098499551825	0.5464676033532226	0.1338331229665162	0.3221075517404298
6.218	0.07928555147761218	0.2129769787404433	0.04979103396877063	0.05521370046114189	0.03902096447902383	0.2389096569432346	0.2682692601477139	0.04906764193428183	0.04999958288033142	0.2178543480857465	0.2232308675879342	0.4859805803329272	0.06759767956544017	0.3939636687953121	0.1218312750848053	0.1122426705154762	0.1183125989002034	0.5471583390170414	0.1330364201607538	0.3240010267468655
6.219	0.07953042234042398	0.2119132340182836	0.04857004548630792	0.05502626310340018	0.03929585273857397	0.2348733042574602	0.2678064431950082	0.04913340115523893	0.04990159611940684	0.214267270932935	0.2232218336493698	0.4848777749116105	0.06778595839676413	0.3956601222060219	0.120318957684411	0.1103676051819732	0.1181024383360669	0.5477309011923319	0.1322443848121059	0.3258410793945943
